#!OML:ASF X:\für Bonn\!DataBase\2005_08_12_Daniel\c3d\Daniel.ASF
:FULLY-SPECIFIED
:DEGREES
1531
root 16.8198 17.1766 -29.2515 -4.49217 113.449 2.97371
lowerback 4.89568 1.42155 4.88562
upperback 2.24746 2.16386 -0.110873
thorax -0.243017 1.14163 -2.95815
lowerneck 2.53326 -0.0508518 -5.93911
upperneck 13.9918 0.0465697 4.40081
head 4.19128 0.118557 2.56874
rclavicle 6.26723e-014 -5.46658e-016
rhumerus -36.9236 -16.3291 -77.9145
rradius 16.7893
rwrist 26.0051
rhand -18.2858 17.8083
rfingers 7.12502
rthumb 7.9945 -12.0205
lclavicle 6.26723e-014 -5.46658e-016
lhumerus -54.6504 43.8715 46.3469
lradius 19.3421
lwrist -36.7518
lhand -11.9905 -6.37829
lfingers 7.12502
lthumb 14.0662 23.1257
rfemur 28.134 4.31882 32.1563
rtibia 3.72464
rfoot -8.93505 20.0716
rtoes 10.0597
lfemur -31.6685 -15.2555 -10.5068
ltibia 31.5805
lfoot -27.3286 4.03957
ltoes -17.929
1532
root 16.9604 17.1396 -29.3506 -3.64095 112.855 3.76653
lowerback 4.73244 1.44805 5.11245
upperback 2.17952 2.20067 0.0384593
thorax -0.215678 1.15933 -2.92866
lowerneck 2.61618 0.000759793 -6.10296
upperneck 13.8763 0.102081 4.45681
head 4.13224 0.137131 2.61646
rclavicle -4.41613e-014 1.54058e-015
rhumerus -36.9963 -17.9057 -76.8411
rradius 16.1692
rwrist 27.3085
rhand -18.48 17.8641
rfingers 7.12502
rthumb 7.80705 -11.9718
lclavicle -4.41613e-014 1.54058e-015
lhumerus -55.3656 44.6571 45.1452
lradius 18.9708
lwrist -37.5672
lhand -12.3144 -6.24121
lfingers 7.12502
lthumb 13.754 23.2842
rfemur 30.6207 4.1438 32.0673
rtibia 1.90833e-014
rfoot -6.88915 20.5699
rtoes 10.6153
lfemur -32.1398 -16.0088 -10.0713
ltibia 31.3866
lfoot -28.1099 3.97658
ltoes -18.6481
1533
root 17.0994 17.0998 -29.449 -2.73039 112.248 4.69114
lowerback 4.68153 1.46413 5.39204
upperback 2.13655 2.2333 0.187508
thorax -0.22337 1.1757 -2.93191
lowerneck 2.52699 0.055564 -6.25071
upperneck 13.906 0.172438 4.51091
head 4.15786 0.165295 2.6663
rclavicle -2.71077e-015 -1.68967e-015
rhumerus -37.1348 -19.8867 -75.552
rradius 15.4884
rwrist 29.0368
rhand -18.7283 18.0001
rfingers 7.12502
rthumb 7.56742 -11.8445
lclavicle -2.71077e-015 -1.68967e-015
lhumerus -56.0336 45.3477 44.0378
lradius 18.6344
lwrist -38.3606
lhand -12.6382 -6.05468
lfingers 7.12502
lthumb 13.4419 23.4916
rfemur 31.1426 3.97602 32.0024
rtibia 1.04958e-013
rfoot -6.40302 21.4072
rtoes 11.5651
lfemur -32.4657 -16.5864 -9.68084
ltibia 31.2242
lfoot -28.4113 3.64049
ltoes -19.618
1534
root 17.2393 17.0626 -29.5494 -2.01861 111.615 5.41339
lowerback 4.62427 1.46879 5.64168
upperback 2.12465 2.24752 0.260531
thorax -0.195058 1.18477 -2.99503
lowerneck 2.41867 0.116307 -6.35748
upperneck 13.851 0.244394 4.58309
head 4.15565 0.195299 2.71322
rclavicle -2.82119e-014 -6.36111e-015
rhumerus -37.275 -21.8541 -74.3385
rradius 14.7969
rwrist 30.6273
rhand -18.9635 18.108
rfingers 7.12502
rthumb 7.34036 -11.7447
lclavicle -2.82119e-014 -6.36111e-015
lhumerus -56.6253 45.9959 42.9216
lradius 18.2586
lwrist -38.8427
lhand -12.9424 -5.84888
lfingers 7.12502
lthumb 13.1488 23.7165
rfemur 31.6716 3.84458 31.8394
rtibia -9.54166e-015
rfoot -5.89227 22.1725
rtoes 12.2549
lfemur -32.6999 -17.1539 -9.39289
ltibia 31.1028
lfoot -28.2666 3.08345
ltoes -20.8873
1535
root 17.3793 17.0236 -29.6482 -1.43073 110.958 6.12961
lowerback 4.75372 1.49007 5.90367
upperback 2.12602 2.29757 0.300181
thorax -0.251781 1.21044 -3.107
lowerneck 2.20582 0.159236 -6.42115
upperneck 14.2714 0.258363 4.88273
head 3.88046 0.229025 2.58087
rclavicle -4.14777e-014 -2.88238e-015
rhumerus -37.5279 -23.7525 -73.1998
rradius 14.2146
rwrist 32.1587
rhand -19.2086 18.0683
rfingers 7.12502
rthumb 7.10383 -11.7925
lclavicle -4.14777e-014 -2.88238e-015
lhumerus -57.2793 46.6059 41.6922
lradius 17.8905
lwrist -39.532
lhand -13.1626 -5.69623
lfingers 7.12502
lthumb 12.9365 23.8828
rfemur 32.3358 3.72696 31.6522
rtibia -1.59028e-014
rfoot -5.25055 22.871
rtoes 13.2456
lfemur -32.7571 -17.8344 -9.08823
ltibia 31.0418
lfoot -27.8155 2.29803
ltoes -21.9432
1536
root 17.5186 16.9889 -29.7504 -0.830961 110.277 6.84809
lowerback 4.88772 1.50392 6.19496
upperback 2.12849 2.34 0.323446
thorax -0.308273 1.23243 -3.25219
lowerneck 2.09245 0.194087 -6.43825
upperneck 14.244 0.298498 4.9292
head 3.88794 0.247746 2.59896
rclavicle 5.13812e-014 1.00386e-014
rhumerus -37.79 -25.5352 -72.0912
rradius 13.6265
rwrist 33.55
rhand -19.3734 17.9745
rfingers 7.12502
rthumb 6.94468 -11.8916
lclavicle 5.13812e-014 1.00386e-014
lhumerus -58.2742 47.4404 40.0171
lradius 17.5134
lwrist -40.5712
lhand -13.3076 -5.47807
lfingers 7.12502
lthumb 12.7967 24.1097
rfemur 32.9849 3.64962 31.4296
rtibia -3.81667e-014
rfoot -4.62455 23.5398
rtoes 13.833
lfemur -32.7455 -18.5621 -8.79285
ltibia 31.0632
lfoot -27.237 1.41045
ltoes -23.708
1537
root 17.6594 16.9559 -29.8528 -0.412198 109.573 7.44064
lowerback 5.11874 1.51816 6.43403
upperback 2.11494 2.38869 0.313964
thorax -0.435248 1.25444 -3.40635
lowerneck 2.07833 0.24264 -6.32556
upperneck 14.2452 0.36053 4.92003
head 3.88691 0.282499 2.57895
rclavicle 4.28164e-014 -3.37934e-015
rhumerus -38.3455 -27.6405 -70.7128
rradius 13.0788
rwrist 35.3533
rhand -19.5267 17.9751
rfingers 7.12502
rthumb 6.79672 -11.8958
lclavicle 4.28164e-014 -3.37934e-015
lhumerus -59.4763 48.2549 38.0303
lradius 17.0917
lwrist -41.783
lhand -13.2745 -5.36521
lfingers 7.12502
lthumb 12.8286 24.2206
rfemur 33.6952 3.5904 31.15
rtibia -4.13472e-014
rfoot -3.92836 24.1032
rtoes 14.4562
lfemur -32.6012 -19.1505 -8.61834
ltibia 31.1972
lfoot -26.3762 0.152344
ltoes -25.4036
1538
root 17.7997 16.9243 -29.9556 -0.183958 108.844 7.8645
lowerback 5.40856 1.52036 6.60548
upperback 2.13296 2.42351 0.299877
thorax -0.56627 1.26994 -3.52867
lowerneck 2.11435 0.301848 -6.2951
upperneck 14.1223 0.42686 4.95677
head 3.83944 0.31499 2.58502
rclavicle 1.86516e-014 -6.95746e-016
rhumerus -38.9777 -29.5978 -69.3312
rradius 12.6387
rwrist 37.1214
rhand -19.6377 17.8182
rfingers 7.12502
rthumb 6.68956 -12.0561
lclavicle 1.86516e-014 -6.95746e-016
lhumerus -61.2309 49.3989 35.3908
lradius 16.6373
lwrist -43.5326
lhand -13.3296 -5.28776
lfingers 7.12502
lthumb 12.7754 24.3014
rfemur 34.4204 3.57103 30.7758
rtibia 4.45278e-014
rfoot -3.12203 24.6453
rtoes 15.1135
lfemur -32.3784 -19.6359 -8.56741
ltibia 31.4729
lfoot -24.9963 -1.69069
ltoes -25.8753
1539
root 17.9433 16.8932 -30.059 -0.145629 108.109 8.11995
lowerback 5.68632 1.53828 6.70251
upperback 2.16107 2.47451 0.267417
thorax -0.68053 1.29376 -3.62888
lowerneck 2.26133 0.354762 -6.1369
upperneck 13.6606 0.526452 4.72751
head 4.09596 0.341537 2.72625
rclavicle -7.94983e-015 2.03754e-015
rhumerus -39.7405 -31.535 -67.9034
rradius 12.2621
rwrist 38.8398
rhand -19.6989 17.6712
rfingers 7.12502
rthumb 6.63048 -12.205
lclavicle -7.94983e-015 2.03754e-015
lhumerus -63.492 50.669 32.1162
lradius 16.0982
lwrist -45.8753
lhand -13.4475 -5.23427
lfingers 7.12502
lthumb 12.6618 24.3619
rfemur 35.1811 3.56101 30.3368
rtibia -3.18055e-014
rfoot -2.34543 25.0283
rtoes 15.8017
lfemur -32.0688 -19.8815 -8.69071
ltibia 31.8696
lfoot -23.2294 -3.89639
ltoes -25.9642
1540
root 18.0922 16.8656 -30.1604 -0.120858 107.378 8.34349
lowerback 5.90627 1.55547 6.7373
upperback 2.19398 2.51669 0.245692
thorax -0.761685 1.31389 -3.68075
lowerneck 2.39822 0.39919 -6.05266
upperneck 13.5482 0.575265 4.71795
head 4.02485 0.367133 2.70343
rclavicle 8.20328e-014 9.98893e-015
rhumerus -40.4803 -33.1701 -66.5704
rradius 11.8955
rwrist 40.2634
rhand -19.7018 17.3694
rfingers 7.12502
rthumb 6.62771 -12.5069
lclavicle 8.20328e-014 9.98893e-015
lhumerus -66.2875 52.019 28.2317
lradius 15.5365
lwrist -48.5243
lhand -13.4848 -5.10944
lfingers 7.12502
lthumb 12.6259 24.489
rfemur 33.853 3.52488 29.8752
rtibia 3.8129
rfoot -3.21674 25.8451
rtoes 16.3739
lfemur -31.7525 -20.103 -8.82836
ltibia 32.3496
lfoot -21.2201 -5.96598
ltoes -25.397
1541
root 18.2401 16.843 -30.2625 -0.460055 106.6 8.1436
lowerback 6.09834 1.58443 6.65955
upperback 2.22851 2.5643 0.183907
thorax -0.828246 1.33657 -3.71061
lowerneck 2.53478 0.447406 -5.94819
upperneck 13.3963 0.632408 4.66061
head 3.93892 0.395175 2.65935
rclavicle 2.49413e-014 8.19987e-015
rhumerus -41.367 -35.0385 -64.9746
rradius 11.5479
rwrist 42.1366
rhand -19.6711 17.1481
rfingers 7.12502
rthumb 6.65729 -12.7273
lclavicle 2.49413e-014 8.19987e-015
lhumerus -69.758 53.4015 23.6274
lradius 15.0082
lwrist -51.713
lhand -13.5779 -4.98123
lfingers 7.12502
lthumb 12.5361 24.6227
rfemur 32.9239 3.55399 29.2754
rtibia 6.79954
rfoot -3.55393 26.3611
rtoes 16.6479
lfemur -31.4441 -20.097 -9.16478
ltibia 32.8663
lfoot -18.8791 -7.71418
ltoes -23.8021
